<svg id="Layer_1" data-name="Layer 1" xmlns="http://www.w3.org/2000/svg" viewBox="0 0 100 100"><title>Untitled-2</title><path d="M94.11,89c-.17.47-.36.93-.49,1.4A10.22,10.22,0,0,1,83.55,98H19.05A10.36,10.36,0,0,1,8.82,84.77C13.36,66.84,26.59,55,44.94,52.67c9.53-1.2,18.88-.44,27.64,3.93,9.86,4.93,16,13.06,19.54,23.25.75,2.13,1.33,4.32,2,6.48ZM71.49,71.34A7.22,7.22,0,0,0,64.25,64,7.41,7.41,0,0,0,57,71.23a7.25,7.25,0,0,0,7.23,7.37A7.07,7.07,0,0,0,71.49,71.34Z"/><path d="M27.16,25.18A23.14,23.14,0,1,1,50.07,48.4,23.19,23.19,0,0,1,27.16,25.18ZM69,25.13A18.71,18.71,0,1,0,50.32,44,18.9,18.9,0,0,0,69,25.13Z"/></svg>