<?xml version="1.0" encoding="UTF-8"?>
<svg width="32px" height="35px" viewBox="0 0 32 35" version="1.1" xmlns="http://www.w3.org/2000/svg" xmlns:xlink="http://www.w3.org/1999/xlink">
    <!-- Generator: Sketch 56.3 (81716) - https://sketch.com -->
    <title>Group</title>
    <desc>Created with Sketch.</desc>
    <g id="Visual-Design-v1" stroke="none" stroke-width="1" fill="none" fill-rule="evenodd">
        <g id="Home-Copy" transform="translate(-303.000000, -615.000000)">
            <g id="Group-20" transform="translate(38.616279, 615.000000)">
                <g id="Group" transform="translate(264.383721, 0.000000)">
                    <path d="M20.6772913,27.9114897 C22.1690557,27.9217637 23.3217828,26.7830587 23.3246371,25.2956074 C23.3274809,23.8087269 22.1747538,22.6460491 20.6978044,22.6471898 C19.2499154,22.648903 18.0373582,23.8686587 18.0538827,25.3075938 C18.0704072,26.7334009 19.2476362,27.9012157 20.6772913,27.9114897 M0,35 C0.0450150466,28.2134321 3.8393846,19.8880427 13.3614915,18.5598388 C17.0014423,18.0518451 20.5433857,18.3383764 23.8568351,20.034733 C27.7549102,22.030178 29.9344362,25.4012016 31.1242009,29.5005398 C31.5111024,30.8350222 31.7601097,32.2003267 31.8581171,33.5901747 C31.8752115,33.8344683 31.9515661,34.0736249 32,34.3150646 L32,34.9994292 C21.3331434,35 10.6668566,35 0,35" id="Fill-16"></path>
                    <path d="M15.9965688,1.58370053 C12.2810479,1.58030361 9.16101799,4.67801599 9.18152959,8.34971458 C9.20167171,11.9834496 12.3383066,15.0771957 15.9959962,15.0698427 C19.6725813,15.0618969 22.7897482,11.9879826 22.8093125,8.35141444 C22.8292567,4.67631613 19.7195334,1.58710305 15.9965688,1.58370053 M15.9919881,-9.23705556e-14 C20.6625852,0.000566620153 24.4244858,3.71816145 24.4210526,8.32931626 C24.4170422,12.9121401 20.5875763,16.68923 15.9662217,16.6666667 C11.3500204,16.6439004 7.58640207,12.9064739 7.57894737,8.33838218 C7.5715148,3.71476173 11.3202459,-0.000566620154 15.9919881,-9.23705556e-14" id="Fill-18"></path>
                </g>
            </g>
        </g>
    </g>
</svg>
