<?xml version="1.0" encoding="UTF-8"?>
<svg width="34px" height="34px" viewBox="0 0 34 34" version="1.1" xmlns="http://www.w3.org/2000/svg" xmlns:xlink="http://www.w3.org/1999/xlink">
    <!-- Generator: Sketch 56.3 (81716) - https://sketch.com -->
    <title>Group 4</title>
    <desc>Created with Sketch.</desc>
    <defs>
        <polygon id="path-1" points="0 0.368872131 33.5763509 0.368872131 33.5763509 33.9452656 0 33.9452656"></polygon>
    </defs>
    <g id="Visual-Design-v1" stroke="none" stroke-width="1" fill="none" fill-rule="evenodd">
        <g id="Home-Copy" transform="translate(-39.000000, -616.000000)">
            <g id="Group-20" transform="translate(38.616279, 615.000000)">
                <g id="Group-4" transform="translate(0.383721, 1.000000)">
                    <path d="M31.4438755,11.7642962 L1.55557229,11.7642962 L1.55557229,12.528726 C1.55557229,18.9175296 1.56551205,25.3074354 1.54174813,31.6973412 C1.53955823,32.342725 1.73007028,32.4981462 2.35903614,32.4970499 C11.785241,32.477754 21.211998,32.477754 30.638755,32.4970499 C31.2644076,32.4981462 31.4604418,32.3482364 31.4582514,31.7000969 C31.434488,25.2881455 31.4438755,18.8761941 31.4438755,12.4647939 L31.4438755,11.7642962 Z M0,34 L33,34 L33,1 L0,1 L0,34 Z" id="Fill-1" ></path>
                    <g id="Group-2">
                        <g id="Group-5">
                            <mask id="mask-2" fill="white">
                                <use xlink:href="#path-1"></use>
                            </mask>
                            <g id="Clip-4"></g>
                            <path d="M0.133714754,0.368872131 L0.133714754,33.7423803 L33.4425672,33.7423803 L33.4425672,0.368872131 C33.4871574,0.569527869 33.5707639,0.770740984 33.5707639,0.970839344 C33.5768951,11.9623148 33.5763509,22.9543475 33.5763509,33.9452656 L-6.89300611e-05,33.9452656 C-6.89300611e-05,22.9543475 -0.000613114754,11.9628721 0.00551803279,0.970839344 C0.00607540984,0.770740984 0.0891245902,0.569527869 0.133714754,0.368872131" id="Fill-3" fill="#FFFFFF" mask="url(#mask-2)"></path>
                        </g>
                        <path d="M23.2195122,17.4299875 C23.2122105,15.9796435 24.2562012,14.9257119 25.6988167,14.9268293 C27.0849698,14.9279484 28.1820352,16.0048036 28.1950215,17.3763124 C28.2074433,18.7606809 27.0657726,19.9107802 25.6852657,19.902439 C24.2991127,19.8945658 23.2263262,18.8188288 23.2195122,17.4299875" id="Fill-8" ></path>
                    </g>
                </g>
            </g>
        </g>
    </g>
</svg>
