<svg id="Layer_1" data-name="Layer 1" xmlns="http://www.w3.org/2000/svg" viewBox="0 0 100 100"><title>Untitled-2</title><path d="M3.23,50q0-16.5,0-33c0-8.22,5.75-13.95,14-14C39.15,3.07,61.08,3.2,83,3A14,14,0,0,1,97.17,17c-.09,22.06,0,44.12-.06,66.18A13.41,13.41,0,0,1,83.28,97c-22.06.06-44.12,0-66.18.05A14,14,0,0,1,3.16,82.84C3.42,71.91,3.23,61,3.23,50ZM7.65,33.52v2.37c0,15.47.16,30.93-.09,46.39A10,10,0,0,0,17.91,92.63c21.49-.17,43-.06,64.49-.07,6.51,0,10.31-3.78,10.31-10.27q0-23.29,0-46.58V33.52Z"/><path d="M67,63.45a16.38,16.38,0,1,1-32.75-.27A16.38,16.38,0,1,1,67,63.45ZM48.42,65.37c0,1.33,0,2.44,0,3.55.08,1.66,1.15,2.88,2.49,2.73,1.53-.17,2.22-1.15,2.32-2.69.21-3.41.25-3.43,3.6-3.58,1.54-.07,2.59-.75,2.6-2.34s-1-2.3-2.56-2.37c-3.42-.14-3.42-.16-3.66-3.51,0-.07,0-.13,0-.19-.06-1.54-.8-2.57-2.39-2.56S48.51,55.52,48.44,57c-.06,1.16,0,2.34,0,3.67-1.43,0-2.61,0-3.79,0A2.15,2.15,0,0,0,42.29,63a2.19,2.19,0,0,0,2.4,2.32C45.86,65.4,47,65.37,48.42,65.37Z"/></svg>