<svg id="Layer_1" data-name="Layer 1" xmlns="http://www.w3.org/2000/svg" viewBox="0 0 100 100"><title>Untitled-2</title><path d="M49.83,1.76c3.51.6,7.09.72,10.56,1.66,13,3.54,20.08,12.43,22.8,25.17a95,95,0,0,1,1.49,27.65c-.52,6.2-3.79,11-8.17,15.07A37,37,0,0,1,58.94,81c-1,.21-1.24.7-1.22,1.64.06,2.24.05,4.49,0,6.73a9,9,0,0,1-8.33,9.14,17.85,17.85,0,0,1-5.79-.19,8.92,8.92,0,0,1-6.81-8.58c0-2.31,0-4.61,0-6.91A1.58,1.58,0,0,0,35.39,81,37.25,37.25,0,0,1,11.71,63.39a17.53,17.53,0,0,1-2.12-8.52c-.24-9.45-.28-18.89,2.1-28.16C15.24,12.85,24.61,4.45,38.81,2.51c2-.26,3.95-.5,5.93-.75ZM41,78.9c0,3.51,0,7,0,10.55a4.71,4.71,0,0,0,4.45,4.83,17.71,17.71,0,0,0,3.09,0,4.88,4.88,0,0,0,4.86-5.08c.07-7,0-13.94,0-20.91,0-1-.26-1.56-1.43-1.54q-4.81.09-9.64,0c-1.18,0-1.4.54-1.39,1.55C41.06,71.87,41,75.38,41,78.9ZM36.79,77c0-3.27,0-6.17,0-9.06,0-1.1-.7-1.09-1.47-1.09H20.18l-.12.5A34.41,34.41,0,0,0,36.79,77Zm38-10H57.89v10C64.53,75.32,69.79,71.87,74.8,67Z"/><path d="M17.34,98.59A8,8,0,0,1,9,90.3a8.23,8.23,0,0,1,8.4-8.56,8.43,8.43,0,0,1,8.45,8.39A8.23,8.23,0,0,1,17.34,98.59Z"/></svg>