<?xml version="1.0" encoding="UTF-8"?>
<svg width="28px" height="36px" viewBox="0 0 28 36" version="1.1" xmlns="http://www.w3.org/2000/svg" xmlns:xlink="http://www.w3.org/1999/xlink">
    <!-- Generator: Sketch 56.3 (81716) - https://sketch.com -->
    <title>Group 3</title>
    <desc>Created with Sketch.</desc>
    <g id="Visual-Design-v1" stroke="none" stroke-width="1" fill="none" fill-rule="evenodd">
        <g id="Home-Copy" transform="translate(-219.000000, -615.000000)">
            <g id="Group-20" transform="translate(38.616279, 615.000000)">
                <g id="Group-3" transform="translate(180.383721, 0.000000)">
                    <path d="M18.2039989,27.9718708 C20.6268546,27.3508449 22.5267918,26.0618914 24.3063489,24.2417602 L18.2039989,24.2417602 L18.2039989,27.9718708 Z M10.5960794,24.2355443 L4.47956703,24.2355443 C6.29180647,26.0686724 8.19337781,27.3796641 10.5960794,27.9679152 L10.5960794,24.2355443 Z M16.6074633,24.2366744 L12.2291103,24.2366744 C12.1953385,24.3417798 12.1691925,24.3835959 12.1686478,24.4265422 C12.1626561,27.6085226 12.1632008,30.790503 12.1490276,33.9730485 C12.1474043,34.3804731 12.3320599,34.4612799 12.6708675,34.4584545 C13.7798905,34.4465878 14.8905476,34.4262448 15.9990259,34.4663657 C16.5328385,34.4855785 16.6564869,34.2844091 16.6532187,33.7662283 C16.6336093,30.7865475 16.6445034,27.8074317 16.6423246,24.828316 C16.6423246,24.6503149 16.6221704,24.472879 16.6074633,24.2366744 L16.6074633,24.2366744 Z M18.1669588,36 L10.7311667,36 C10.5672099,35.7547541 10.6347536,35.4987717 10.6342089,35.2591766 C10.6271277,33.5876622 10.6162335,31.9150175 10.6391112,30.2429379 C10.6456477,29.7823956 10.5285357,29.5913976 10.0660797,29.4676445 C6.41327608,28.4911817 3.60367854,26.2766228 1.66070948,22.955067 C1.07188146,21.9486548 0.887225868,20.7015174 0.856177582,19.5080628 C0.767935084,16.0746206 0.809332799,12.6456991 1.61604353,9.27950171 C2.89882798,3.92364834 6.68127181,0.605483003 11.9812687,0.126857997 C14.4291809,-0.0946544025 16.8558496,-0.0771368403 19.2362182,0.597006764 C23.529597,1.81249955 26.0788247,4.82156467 27.1513523,9.20434572 C28.0593785,12.9146784 28.1639622,16.7058179 27.8153499,20.5020432 C27.6726367,22.0537601 27.0402321,23.4246507 26.0434188,24.6220608 C24.0699461,26.9937127 21.6993822,28.7098687 18.7432586,29.4659493 C18.2933308,29.5806611 18.1495282,29.7547065 18.1560647,30.229376 C18.1811212,32.1257933 18.1669588,34.0222107 18.1669588,36 L18.1669588,36 Z" id="Fill-12"></path>
                    <path d="M4.94117647,32.6545947 C4.93837408,34.0788142 3.88265264,35.1570785 2.48491329,35.1627907 C1.05470742,35.1684586 -0.0122093589,34.0748311 0.000105525246,32.6153334 C0.011860642,31.195097 1.08157626,30.1304888 2.49051096,30.1395928 C3.88825032,30.1486969 4.94341198,31.2315133 4.94117647,32.6545947" id="Fill-14"></path>
                </g>
            </g>
        </g>
    </g>
</svg>
