<?xml version="1.0" encoding="UTF-8"?>
<svg width="33px" height="35px" viewBox="0 0 33 35" version="1.1" xmlns="http://www.w3.org/2000/svg" xmlns:xlink="http://www.w3.org/1999/xlink">
    <!-- Generator: Sketch 56.3 (81716) - https://sketch.com -->
    <title>Fill 10</title>
    <desc>Created with Sketch.</desc>
    <g id="Visual-Design-v1" stroke="none" stroke-width="1" fill="none" fill-rule="evenodd">
        <g id="Home-Copy" transform="translate(-129.000000, -615.000000)">
            <g id="Group-20" transform="translate(38.616279, 615.000000)">
                <path d="M100.84565,27.364561 C100.843447,25.8590451 99.7896642,24.7956969 98.3052389,24.8002002 C96.9044123,24.8052969 95.8049806,25.9245514 95.7939808,27.3583492 C95.7829809,28.8040059 96.9236619,29.9859431 98.3316385,29.9876375 C99.7522648,29.988202 100.847847,28.8457944 100.84565,27.364561 L100.84565,27.364561 Z M114.45792,6.22747933 C114.501369,5.87792407 114.41722,5.64865195 114.334722,5.417121 C113.81993,3.95904072 112.767248,3.0374346 111.42142,2.46990141 C109.141158,1.50876561 106.767948,1.44212987 104.367238,1.85041494 C102.983461,2.08589886 101.689882,2.56533734 100.62455,3.54341443 C99.856763,4.24817206 99.3524215,5.10878954 99.2044739,6.22747933 L114.45792,6.22747933 Z M123.383721,35 L90.3837209,35 C90.9540614,25.44116 91.5238519,15.88232 92.0969424,6.27039726 C92.4571864,6.27039726 92.6958824,6.27039726 92.9345784,6.27039726 C94.2980057,6.27039726 95.661433,6.27039726 97.0243103,6.26926784 C97.3125055,6.26926784 97.5886008,6.29298565 97.6672495,5.87453581 C98.1913908,3.08374079 99.9920608,1.49973026 102.501669,0.689936638 C105.292322,-0.211339941 108.131375,-0.217551747 110.941828,0.600712516 C113.572984,1.36702349 115.470453,2.95724583 116.060043,5.84347678 C116.143092,6.24780888 116.362538,6.27209139 116.668333,6.27096197 C118.075209,6.26757371 119.483186,6.267009 120.890062,6.27378552 C121.123259,6.27491494 121.374054,6.20714978 121.61385,6.39519809 C122.202891,15.9195908 122.793031,25.4597954 123.383721,35 L123.383721,35 Z" id="Fill-10"></path>
            </g>
        </g>
    </g>
</svg>
