<svg id="Layer_1" data-name="Layer 1" xmlns="http://www.w3.org/2000/svg" viewBox="0 0 100 100"><title>Untitled-2</title><path d="M51.08,55.76,54.93,45.4c1.44-3.92,2.91-7.82,4.32-11.75,1.79-5,6.32-7.64,11.63-5.57q10,3.9,20.33,7.05c5.62,1.72,7.05,7,5.51,11.2C91.89,59.59,87,72.83,82,86c-2.15,5.64-7.05,7.63-12.77,5.63C64.8,90.1,60.35,88.59,55.92,87c-.85-.3-1.37-.33-1.83.6C50.58,94.69,44.77,98.18,37,98.26c-5.71,0-11.43.21-17.14-.11A18.27,18.27,0,0,1,3.17,75.47c1.23-4.84,2.75-9.61,4-14.44,1.22-4.64.7-9.34.2-14-.69-6.43-1.8-12.83-1.95-19.31a14.36,14.36,0,0,1,11.78-14.3c1.23-.23,1.74-.64,1.65-1.91s0-2.71,0-4.07a5,5,0,0,1,5-5.07c3.59-.06,7.19-.07,10.78,0a5,5,0,0,1,5,4.94c.06,1.47.06,3,0,4.42,0,1,.35,1.43,1.36,1.65,8.43,1.8,13.07,8.93,11.94,17.62-1,7.75-2.07,15.51-2.37,23.34,0,.45,0,.91.07,1.36ZM29.3,65.26c-5.78,0-11.55,0-17.33,0a1.71,1.71,0,0,0-2,1.47c-.87,3.23-1.92,6.42-2.77,9.66-2.16,8.27,4,17.15,12.31,17.6A175.1,175.1,0,0,0,39,94c7.64-.43,13.93-8.54,12.56-16.07-.67-3.71-2.09-7.22-3-10.88-.34-1.43-1.06-1.8-2.48-1.78C40.5,65.3,34.9,65.26,29.3,65.26ZM59.47,46.05a3,3,0,0,0-.91,1.64c-1.74,4.68-3.36,9.41-5.24,14A8.83,8.83,0,0,0,53.11,68c1.36,4.48,3.22,8.89,2.68,13.74-.1,1,.61,1,1.19,1.24,4.88,1.7,9.78,3.35,14.65,5.08a4.55,4.55,0,0,0,5-1.27,8.13,8.13,0,0,0,2-3.31Q81,76.85,83.46,70.23c1.71-4.62,3.4-9.25,5.16-14.05ZM48.1,36c.29-2.57.67-4.89.79-7.23a10.69,10.69,0,0,0-10.8-11.59c-5.88-.1-11.77-.08-17.65,0a10.78,10.78,0,0,0-10.8,9.07c-.45,2.64.37,5.25.49,7.89.07,1.59.66,1.9,2.13,1.89,11.3-.06,22.6,0,33.9,0Z"/></svg>